<?xml version="1.0" encoding="utf-8"?>
<!-- Generator: Adobe Illustrator 22.1.0, SVG Export Plug-In . SVG Version: 6.00 Build 0)  -->
<svg version="1.1" id="Layer_1" xmlns="http://www.w3.org/2000/svg" xmlns:xlink="http://www.w3.org/1999/xlink" x="0px" y="0px"
	 viewBox="0 0 512 512" style="enable-background:new 0 0 512 512;" xml:space="preserve">
<g>
	<path d="M106.4,275.3L93,245.9H56.4L43,275.3H31l43.7-92.4l43.7,92.4H106.4z M74.7,206.4L61,236.2h27.6
		C88.5,236.2,74.7,206.4,74.7,206.4z M154,278.4L110.2,186h12l31.7,67.5l31.7-67.5h12L154,278.4z M210.6,275.3V186h10.9v89.4H210.6z
		 M357.7,194.1v81.3h-12.2v-81.3h-29V186h70v8.1H357.7z M481,229.8c0,6.5-1.2,12.5-3.6,18.1c-2.4,5.6-5.8,10.6-10,14.8
		s-9.2,7.6-14.8,10c-5.6,2.4-11.7,3.6-18.1,3.6c-6.5,0-12.5-1.2-18.1-3.6c-5.6-2.4-10.6-5.8-14.8-10s-7.6-9.1-10-14.8
		c-2.4-5.6-3.6-11.7-3.6-18.1s1.2-12.5,3.6-18.1s5.8-10.6,10-14.8s9.1-5.9,14.8-8.4c5.6-2.4,11.7-3.6,18.1-3.6
		c6.5,0,12.5,1.2,18.1,3.6c5.6,2.4,10.6,4.1,14.8,8.4c4.2,4.2,7.5,9.2,10,14.8C479.8,217.3,481,223.4,481,229.8z M470.1,229.8
		c0-5.1-0.9-9.8-2.7-14.3s-4.4-8.2-7.6-11.5c-3.2-3.2-7-5.8-11.4-7.7c-4.4-1.9-9-2.8-13.9-2.8s-9.6,0.9-13.9,2.8s-8.2,4.4-11.4,7.7
		c-3.2,3.2-5.8,7-7.6,11.5c-1.8,4.4-2.7,9.2-2.7,14.3c0,5.1,0.9,9.8,2.7,14.3c1.8,4.4,4.4,8.2,7.6,11.5c3.2,3.2,7,5.8,11.4,7.7
		c4.4,1.9,9,2.8,13.9,2.8s9.6-0.9,13.9-2.8c4.4-1.9,8.2-4.4,11.4-7.7c3.2-3.2,5.8-7,7.6-11.5C469.2,239.7,470.1,234.9,470.1,229.8
		L470.1,229.8z M403.4,297.8v-4.4l62.5-7l-170.8,9.4c0.4-1.5,0.8-3.2,1-5.1c0.2-1.4,0.4-3,0.4-4.6l45.6-5.7l-45.6,1.3
		c0-0.3-0.1-0.5-0.1-0.8c-2-12.1-17.9-16.7-17.9-16.7l-0.8-18.5h16.7l13.4,29.4h12l-43.7-92.4l-43.7,92.4h12l13.4-29.4h16.6
		l-0.8,18.6c0,0-16,4.6-17.9,16.7c-0.1,0.2-0.1,0.5-0.1,0.8l-45.6-1.3l45.6,5.7c0.1,1.6,0.2,3.1,0.4,4.6c0.2,1.8,0.6,3.5,1,5.1
		l-170.8-9.5l62.5,7v4.4c-4.1,0.6-7.4,4.2-7.4,8.6c0,4.8,3.9,8.7,8.7,8.7s8.7-3.9,8.7-8.7c0-4.4-3.2-7.9-7.4-8.6v-4.1l56.5,6.3v3.8
		c-4,0.8-7,4.4-7,8.5c0,4.8,3.9,7.2,8.7,7.2c4.8,0,8.7-2.4,8.7-7.2c0-4.2-3-7.7-7-8.5v-3.4l20,2.3v16.7h-4.1v9.8h4.1v-4.6h3.5v4.6
		h4.1v-9.7h-4.1v-16.3l26.9,3c5.7,8,13.4,9.6,13.4,9.6l-0.1,4.7l-3.6,0.1l-0.1,8.5h2.9l0.1-3.5h3.7l0.1,3.5h2.9l-0.1-8.5l-3.6-0.1
		l-0.1-4.7c0,0,7.7-1.5,13.4-9.6l26.9-3v16.3h-4.1v9.7h4.1v-4.6h3.5v4.6h4.1v-9.7H321v-16.7l20-2.2v3.4c-4,0.8-7,4.4-7,8.5
		c0,4.8,3.9,7.2,8.7,7.2s8.7-2.4,8.7-7.2c0-4.2-3-7.7-7-8.5v-3.8l56.5-6.3v4.1c-4.1,0.6-7.4,4.2-7.4,8.6c0,4.8,3.9,8.7,8.7,8.7
		c4.8,0,8.7-3.9,8.7-8.7C410.8,302.1,407.7,298.5,403.4,297.8z M262.3,236.2l13.8-29.9l13.8,29.9h-12.6l-1.2-28.3l-1.2,28.3H262.3z"
		/>
</g>
</svg>
