<?xml version="1.0" encoding="utf-8"?>
<!-- Generator: Adobe Illustrator 19.1.0, SVG Export Plug-In . SVG Version: 6.00 Build 0)  -->
<svg version="1.1" id="Logo" xmlns="http://www.w3.org/2000/svg" xmlns:xlink="http://www.w3.org/1999/xlink" x="0px" y="0px"
	 viewBox="0 0 332.9 206.4" style="enable-background:new 0 0 332.9 206.4;" xml:space="preserve">
<style type="text/css">
	.st0{fill:#FFFFFF;}
</style>
<g>
	<g>
		<path class="st0" d="M28.6,179.7c-0.9,1.4-2.5,2.5-5,3.1c-2.1,0.5-5.1,0.8-8.8,0.8H0c0.4-1.6,0.6-5,0.6-10.1c0-3.9,0-5.9,0-5.8
			c-0.1-2.1-0.3-3.4-0.6-4h17.6c2.4,0,4.2,0.1,5.4,0.4c2.4,0.5,3.6,1.4,3.7,2.8c0.2,2.1-1.2,3.5-4.3,4.3c0.7,0,1.4,0.1,2,0.2
			c1.5,0.3,2.6,0.8,3.5,1.6c1.1,1.1,1.6,2.3,1.6,3.7C29.5,177.7,29.2,178.7,28.6,179.7z M19.2,175.6c-0.4-0.8-1.2-1.3-2.3-1.6
			c-0.6-0.2-1.6-0.2-3-0.2H9.5c0,0.4-0.1,1.2-0.1,2.4c0,1.1,0,2.5,0.1,4.4h4.3c1.6,0,3-0.3,4.1-0.8c1.2-0.6,1.8-1.4,1.8-2.4
			C19.7,176.7,19.5,176.2,19.2,175.6z M17.3,167.8c-0.2-0.7-0.9-1.1-2.1-1.3c-0.6-0.1-1.8-0.1-3.5-0.1H9.5c-0.1,1.4-0.1,2.8,0,4.4
			h3.1c3.3,0,4.9-0.8,4.9-2.3C17.4,168.2,17.4,168,17.3,167.8z"/>
		<path class="st0" d="M51.7,179.9c-1.9-1.5-3.8-2.2-5.7-2.2c-1.8,0-3.4,0.6-4.9,1.8l-0.6-3.2c-2.1,3.8-3.4,6.2-3.9,7.2h-5.9
			c1.4-1.9,3.6-5.3,6.6-10.2c1.7-2.9,3.5-6.2,5.4-9.7h10.9c0.9,2,2.6,5.2,5,9.6c3.5,5.7,5.9,9.2,7.3,10.4H53.2
			C53.1,183.1,52.6,181.9,51.7,179.9z M40.8,175.7c1.4-0.8,3-1.2,4.7-1.2c1.6,0,3,0.4,4.2,1.2c-2.1-4.3-3.5-7-4.2-8
			C44.7,168.8,43.2,171.5,40.8,175.7z"/>
		<path class="st0" d="M93.1,164.5l1.6,4.8c-4.3-1.9-8.1-2.8-11.4-2.8c-0.6,0-1.1,0-1.6,0.1c-2.2,0.3-3.8,0.8-4.9,1.5
			c-1.3,1-2.1,2.5-2.2,4.5c-0.2,2.9,0.7,5,2.6,6.4c1.5,1.1,3.4,1.6,5.7,1.6c0.5,0,1,0,1.5-0.1c4.6-0.6,8.5-2,11.5-4.2l-1.5,5.5
			c-0.9,0.5-1.9,0.9-2.9,1.2c-2.5,0.8-5.1,1.3-7.9,1.3c-9.1,0.2-15-1.8-17.8-5.8c-1-1.4-1.5-3-1.5-4.8c0-2.1,0.8-4,2.3-5.6
			c1.9-1.9,4.7-3.3,8.6-4.2c2.5-0.6,5.2-0.8,8.1-0.8c2.2,0,4.3,0.2,6.3,0.5C91.5,163.8,92.6,164.1,93.1,164.5z"/>
		<path class="st0" d="M108.9,183.5h-10c0.3-2,0.5-5.4,0.5-10.1c0-5.2-0.2-8.4-0.5-9.8h9.9c-0.1,0.3-0.1,2.1-0.1,5.5
			c0.7-0.4,1.9-0.7,3.4-0.7c2.2,0,3.9,0.6,5.1,1.8c-0.1-2.2-0.2-4.4-0.5-6.6h10c-0.4,1.1-0.5,4.4-0.5,10c0,2.4,0.2,5.7,0.5,9.9h-9.9
			c0.2-1.3,0.4-2.9,0.4-4.9c0-1.9,0-3.7,0-5.6c-0.7-1.1-1.9-1.6-3.5-1.6c-1.8,0-3.2,0.5-4.2,1.4l-0.7-2.8
			C108.6,178.2,108.7,182.7,108.9,183.5z"/>
		<path class="st0" d="M144.9,163.6c1.6,4.1,3.8,7.7,6.5,10.9c0.9-1.1,1.7-2.3,2.5-3.4c1.9-2.7,3.5-5.2,4.7-7.5h12.7
			c-0.5,4.2-0.8,7.6-0.8,10c0,2.4,0.3,5.8,0.8,10h-11.3c0.5-4.2,0.7-7.6,0.7-10c0-1.3-0.1-3-0.2-4.9c-1.9,2.6-3.9,5.5-5.8,8.7
			c-1.9,3.2-3.4,5.8-4.3,8c-0.7-0.1-1.4-0.3-2.1-0.6c-1.7-0.8-3.2-2.2-4.5-4.2c-1.1-1.7-2.3-3.5-3.4-5.5c-1.7-2.9-2.9-4.8-3.5-5.9
			c-0.1,1.8-0.1,3.3-0.1,4.4c0,3.1,0.2,6.4,0.6,10H132c0.4-3.4,0.5-6.7,0.5-10c0-2.4-0.1-5.7-0.3-10H144.9z"/>
		<path class="st0" d="M195.1,179.9c-1.9-1.5-3.8-2.2-5.7-2.2c-1.8,0-3.4,0.6-4.9,1.8l-0.6-3.2c-2.1,3.8-3.4,6.2-3.9,7.2h-5.9
			c1.4-1.9,3.6-5.3,6.6-10.2c1.7-2.9,3.5-6.2,5.4-9.7H197c0.9,2,2.6,5.2,5,9.6c3.5,5.7,5.9,9.2,7.3,10.4h-12.7
			C196.5,183.1,196,181.9,195.1,179.9z M184.2,175.7c1.4-0.8,3-1.2,4.7-1.2c1.6,0,3,0.4,4.2,1.2c-2.1-4.3-3.5-7-4.2-8
			C188.1,168.8,186.5,171.5,184.2,175.7z"/>
		<path class="st0" d="M210.9,163.6h12.6c1.1,1.9,2.9,4.2,5.3,6.9c2.1,2.4,4.3,4.5,6.4,6.3c0.1-0.8,0.1-1.7,0.1-2.8
			c0-2.8-0.3-6.3-0.8-10.4h5.3c-0.3,4.2-0.4,7.5-0.4,9.9c0,3.1,0,6.8,0,11.1c-2-0.1-3.9-0.3-5.5-0.6c-4-0.8-6.8-2.2-8.5-4
			c-2.5-2.8-4.1-4.7-4.8-5.4c-2-2.2-3.7-4-5.1-5.2c0,0.8,0,2.2,0,4.2c0,3.1,0.3,6.5,0.7,10h-5.6c0.4-3.4,0.7-6.7,0.7-10
			C211.2,171.1,211.1,167.8,210.9,163.6z"/>
		<path class="st0" d="M244.9,163.6H255c-0.5,2.4-0.8,5.7-0.8,10.1c0,5.2,0.3,8.5,0.8,9.9h-10.1c0.4-2.3,0.6-5.6,0.6-9.9
			C245.5,168.1,245.3,164.7,244.9,163.6z"/>
		<path class="st0" d="M270.4,166.4c-2.4,0-3.9,0.1-4.4,0.2c-1.9,0.3-4.4,0.9-7.6,2l1.1-5.1h31.9l1.1,5.1c-2.8-1.1-5.2-1.7-7.2-2
			c-1.3-0.2-2.9-0.2-4.8-0.2c-0.2,2.9-0.3,5.2-0.3,7.1c0,2.4,0.3,5.7,0.8,10h-10.7c0.4-2.1,0.6-5.4,0.6-9.7
			C270.7,171.5,270.6,169,270.4,166.4z"/>
		<path class="st0" d="M314.5,170.8c2.4-2.3,4.8-4.7,7-7.3h6.2c-2.4,2-4.1,3.5-5.1,4.4c-2.4,2.2-4.3,4.5-5.9,6.7
			c0.1,2.8,0.1,4.5,0.2,5.1c0.1,1.6,0.3,2.9,0.5,3.7h-10.1c0.3-1.1,0.5-2.4,0.6-3.9c0-1.6,0-3.2,0.1-4.8c-1.1-1.4-3-3.1-5.4-5
			c-2.6-2.1-5.3-4.1-7.9-6.2h13.3C309,165.2,311.2,167.6,314.5,170.8z"/>
	</g>
	<g>
		<path class="st0" d="M202.9,106.8c-2,3.4-5.9,5.8-11.7,7.2c-4.9,1.2-11.8,1.8-20.5,1.8h-34.4c1-3.8,1.5-11.6,1.5-23.6
			c0-9.2,0-13.7,0-13.6c-0.2-4.8-0.7-7.9-1.5-9.3h41c5.5,0,9.8,0.3,12.6,0.8c5.5,1.1,8.4,3.3,8.7,6.5c0.4,4.8-2.9,8.1-10,9.9
			c1.6,0.1,3.2,0.2,4.6,0.5c3.5,0.7,6.2,1.9,8.1,3.8c2.4,2.4,3.7,5.4,3.7,8.7C205,102.2,204.3,104.6,202.9,106.8z M180.9,97.4
			c-1-1.8-2.8-3.1-5.4-3.6c-1.5-0.4-3.8-0.6-6.9-0.6h-10.3c-0.1,0.9-0.2,2.8-0.2,5.5c-0.1,2.5,0,5.9,0.2,10.1h10.1
			c3.8,0,7-0.6,9.5-1.9c2.8-1.4,4.2-3.3,4.2-5.7C182.1,100,181.7,98.7,180.9,97.4z M176.6,79.2c-0.4-1.5-2-2.5-4.9-2.9
			c-1.5-0.2-4.2-0.3-8.2-0.3h-5.2c-0.3,3.2-0.3,6.6,0,10.2h7.2c7.6,0,11.4-1.8,11.4-5.5C176.8,80.2,176.8,79.7,176.6,79.2z"/>
	</g>
	<g>
		<g>
			<g>
				<g>
					<path class="st0" d="M209.6,127.2c-1.2,1.2-2.5,2.4-3.7,3.7c-1.2,1.3-2.5,2.6-3.7,3.9c-1.2,1.3-2.5,2.6-3.7,3.9
						c-1.3,1.2-2.5,2.4-3.8,3.4c-1.3,1-2.6,2-3.9,2.7c-1.3,0.7-2.6,1.3-3.9,1.6c-1.3,0.3-2.5,0.5-3.6,0.5c-1.1,0-2.1-0.2-2.9-0.4
						c-0.2-0.1-0.4-0.1-0.6-0.1c-0.2-0.1-0.3-0.1-0.5-0.2c-0.2,0-0.3-0.1-0.4-0.1c-0.1,0-0.3-0.1-0.4-0.1c-0.5-0.3-0.7-0.3-0.7-0.3
						c0,0,0.2,0.1,0.6,0.3c0.1,0.1,0.2,0.1,0.4,0.2c0.1,0.1,0.3,0.1,0.4,0.2c0.2,0.1,0.3,0.2,0.5,0.2c0.2,0.1,0.4,0.1,0.6,0.2
						c0.8,0.3,1.8,0.6,3,0.7c1.2,0.1,2.5,0.1,3.8-0.1c1.4-0.3,2.8-0.7,4.2-1.4c1.4-0.7,2.8-1.5,4.1-2.6c1.4-1,2.7-2.2,4-3.4
						c1.3-1.2,2.6-2.5,3.8-3.9c1.2-1.3,2.5-2.7,3.7-4c1.2-1.3,2.4-2.6,3.6-3.8c1.2-1.2,2.4-2.3,3.5-3.2c0.6-0.5,1.2-0.9,1.8-1.3
						c0.6-0.4,1.2-0.7,1.8-1c1.2-0.5,2.3-0.8,3.4-0.8c1.1,0,2.1,0.2,2.9,0.5c0.2,0.1,0.4,0.2,0.6,0.2c0.2,0.1,0.3,0.2,0.5,0.2
						c0.3,0.2,0.6,0.3,0.8,0.4c0.4,0.3,0.6,0.4,0.6,0.4s-0.2-0.2-0.6-0.5c-0.2-0.2-0.4-0.3-0.7-0.5c-0.1-0.1-0.3-0.2-0.5-0.3
						c-0.2-0.1-0.4-0.2-0.6-0.3c-0.8-0.4-1.8-0.8-3-0.9c-0.6-0.1-1.2,0-1.8,0c-0.3,0.1-0.6,0.1-1,0.2c-0.2,0-0.3,0.1-0.5,0.1
						c-0.2,0.1-0.3,0.1-0.5,0.2c-1.3,0.4-2.6,1.2-3.9,2C212.1,125,210.8,126.1,209.6,127.2z"/>
					<path class="st0" d="M214.3,125.9c-1.1,1-2.2,2-3.3,3.2c-0.5,0.6-1.1,1.2-1.6,1.8c-0.5,0.6-1.1,1.2-1.6,1.8
						c-1.1,1.2-2.2,2.4-3.4,3.6c-1.1,1.2-2.3,2.3-3.5,3.4c-1.2,1.1-2.4,2-3.6,2.9c-2.4,1.7-4.9,3-7.2,3.6c-1.1,0.3-2.2,0.6-3.2,0.7
						c-0.2,0-0.5,0.1-0.7,0.1c-0.2,0-0.5,0-0.7,0.1c-0.4,0-0.8,0-1.2,0.1c-0.7,0-1.3,0-1.7,0c-0.4,0-0.6,0-0.6,0s0.2,0.1,0.6,0.2
						c0.4,0.1,1,0.3,1.8,0.5c0.8,0.2,1.7,0.3,2.8,0.4c1.1,0.1,2.3,0,3.5-0.1c1.3-0.2,2.6-0.5,4-1c1.4-0.5,2.8-1.1,4.1-2
						c0.7-0.4,1.4-0.8,2-1.3c0.3-0.2,0.7-0.5,1-0.7c0.3-0.3,0.6-0.5,1-0.8c1.3-1.1,2.5-2.2,3.7-3.5c1.2-1.2,2.3-2.5,3.4-3.8
						c0.5-0.6,1.1-1.3,1.6-1.9c0.5-0.6,1-1.2,1.5-1.9c1-1.2,2-2.4,2.9-3.4c0.5-0.5,0.9-1,1.4-1.5c0.5-0.5,0.9-0.9,1.4-1.3
						c0.9-0.8,1.8-1.3,2.7-1.7c0.9-0.3,1.7-0.4,2.4-0.4c0.7,0.1,1.3,0.2,1.7,0.4c0.4,0.2,0.6,0.3,0.6,0.3s-0.2-0.1-0.6-0.4
						c-0.4-0.2-1-0.6-1.8-0.8c-0.8-0.2-1.8-0.4-2.8-0.2c-1.1,0.2-2.2,0.6-3.3,1.2C216.5,124.1,215.4,125,214.3,125.9z"/>
				</g>
				<g>
					<path class="st0" d="M232.2,121.1c-1.4,1-2.7,2.2-4,3.4c-1.3,1.2-2.6,2.5-3.8,3.9c-1.2,1.3-2.5,2.7-3.7,4
						c-1.2,1.3-2.4,2.6-3.6,3.8c-1.2,1.2-2.4,2.3-3.5,3.2c-0.6,0.5-1.2,0.9-1.8,1.3c-0.6,0.4-1.2,0.7-1.8,1
						c-1.2,0.5-2.3,0.8-3.4,0.8c-1.1,0-2.1-0.2-2.9-0.5c-0.2-0.1-0.4-0.2-0.6-0.2c-0.2-0.1-0.3-0.2-0.5-0.2
						c-0.3-0.2-0.6-0.3-0.8-0.4c-0.4-0.3-0.6-0.4-0.6-0.4s0.2,0.2,0.6,0.5c0.2,0.2,0.4,0.3,0.7,0.5c0.1,0.1,0.3,0.2,0.5,0.3
						c0.2,0.1,0.4,0.2,0.6,0.3c0.8,0.4,1.8,0.8,3,0.9c0.6,0.1,1.2,0,1.8,0c0.3-0.1,0.6-0.1,1-0.2c0.2,0,0.3-0.1,0.5-0.1
						c0.2-0.1,0.3-0.1,0.5-0.2c1.3-0.4,2.6-1.2,3.9-2c1.3-0.9,2.5-1.9,3.8-3.1c1.2-1.2,2.5-2.4,3.7-3.7c1.2-1.3,2.5-2.6,3.7-3.9
						c1.2-1.3,2.5-2.6,3.7-3.9c1.3-1.2,2.5-2.4,3.8-3.4c1.3-1,2.6-2,3.9-2.7c1.3-0.7,2.6-1.3,3.9-1.6c1.3-0.3,2.5-0.5,3.6-0.5
						c1.1,0,2.1,0.2,2.9,0.4c0.2,0.1,0.4,0.1,0.6,0.1c0.2,0.1,0.3,0.1,0.5,0.2c0.2,0,0.3,0.1,0.4,0.1c0.1,0,0.3,0.1,0.4,0.1
						c0.4,0.2,0.7,0.3,0.7,0.3s-0.2-0.1-0.6-0.3c-0.1-0.1-0.2-0.1-0.4-0.2c-0.1-0.1-0.3-0.1-0.4-0.2c-0.2-0.1-0.3-0.2-0.5-0.2
						c-0.2-0.1-0.4-0.1-0.6-0.2c-0.8-0.3-1.8-0.6-3-0.7c-1.2-0.1-2.5-0.1-3.8,0.1c-1.4,0.2-2.8,0.7-4.2,1.4
						C235,119.2,233.6,120.1,232.2,121.1z"/>
					<path class="st0" d="M227,120.8c-0.3,0.2-0.7,0.5-1,0.7c-0.3,0.3-0.6,0.5-1,0.8c-1.3,1.1-2.5,2.2-3.7,3.5
						c-1.2,1.2-2.3,2.5-3.4,3.8c-0.5,0.6-1.1,1.3-1.6,1.9c-0.5,0.6-1,1.2-1.5,1.9c-1,1.2-2,2.4-2.9,3.4c-0.5,0.5-0.9,1-1.4,1.5
						c-0.5,0.5-0.9,0.9-1.4,1.3c-0.9,0.8-1.8,1.3-2.7,1.7c-0.9,0.3-1.7,0.4-2.4,0.4c-0.7-0.1-1.3-0.2-1.7-0.4
						c-0.4-0.2-0.6-0.3-0.6-0.3s0.2,0.1,0.6,0.4c0.4,0.2,1,0.6,1.8,0.8c0.8,0.2,1.8,0.4,2.8,0.2c1.1-0.2,2.2-0.6,3.3-1.2
						c1.1-0.6,2.2-1.5,3.3-2.4c1.1-1,2.2-2,3.3-3.2c0.5-0.6,1.1-1.2,1.6-1.8c0.5-0.6,1.1-1.2,1.6-1.8c1.1-1.2,2.2-2.4,3.4-3.6
						c1.1-1.2,2.3-2.3,3.5-3.4c1.2-1.1,2.4-2,3.6-2.9c2.4-1.7,4.9-3,7.2-3.6c1.1-0.3,2.2-0.6,3.2-0.7c0.2,0,0.5-0.1,0.7-0.1
						c0.2,0,0.5,0,0.7-0.1c0.4,0,0.8,0,1.2-0.1c0.7,0,1.3,0,1.7,0c0.4,0,0.6,0,0.6,0s-0.2-0.1-0.6-0.2c-0.4-0.1-1-0.3-1.8-0.5
						c-0.8-0.2-1.7-0.3-2.8-0.4c-1.1-0.1-2.3,0-3.5,0.1c-1.3,0.2-2.6,0.5-4,1c-1.4,0.5-2.8,1.1-4.1,2
						C228.3,119.9,227.7,120.3,227,120.8z"/>
					<path class="st0" d="M238.6,120.8c-0.2,0.1-0.4,0.3-0.6,0.4c-0.4,0.3-0.7,0.5-0.9,0.7c-0.2,0.2-0.4,0.4-0.5,0.5
						c-0.1,0.1-0.2,0.2-0.2,0.2s0.1,0,0.2-0.1c0.2-0.1,0.4-0.2,0.7-0.3c0.3-0.1,0.6-0.2,1.1-0.4c0.4-0.1,0.9-0.3,1.4-0.4
						c0.3-0.1,0.5-0.1,0.8-0.2c0.1,0,0.3-0.1,0.4-0.1c0.1,0,0.3,0,0.4-0.1c0.6-0.1,1.2-0.1,1.9-0.1c0.7,0,1.3,0.1,2,0.2
						c0.3,0.1,0.7,0.2,1,0.3c0.3,0.1,0.7,0.2,1,0.4c0.7,0.3,1.3,0.6,1.9,1.1c0.6,0.4,1.1,0.9,1.6,1.5c0.5,0.5,0.9,1.2,1.1,1.8
						c0.3,0.6,0.5,1.2,0.6,1.8c0.1,0.3,0.1,0.6,0.1,0.9c0,0.3,0,0.5,0,0.8c0,0.2,0,0.5,0,0.7c0,0.2,0,0.4-0.1,0.6
						c0,0.4-0.1,0.6-0.1,0.8c0,0.2-0.1,0.3-0.1,0.3s0.1-0.1,0.1-0.2c0-0.1,0.1-0.2,0.2-0.3c0-0.1,0.1-0.1,0.1-0.2
						c0-0.1,0.1-0.1,0.1-0.2c0.1-0.2,0.2-0.3,0.2-0.5c0.1-0.2,0.1-0.4,0.2-0.7c0-0.3,0.1-0.5,0.1-0.8c0-0.3,0.1-0.6,0-1
						c0-0.7-0.1-1.5-0.4-2.3c-0.3-0.8-0.7-1.7-1.3-2.4c-0.6-0.8-1.2-1.4-2-2c-0.7-0.6-1.5-1-2.3-1.4c-0.4-0.2-0.8-0.3-1.2-0.4
						c-0.2-0.1-0.4-0.1-0.6-0.1c-0.2-0.1-0.4-0.1-0.6-0.1c-0.8-0.1-1.6-0.1-2.3-0.1c-0.7,0.1-1.4,0.2-2,0.4
						c-0.3,0.1-0.6,0.2-0.9,0.3c-0.3,0.1-0.5,0.2-0.8,0.4C239,120.5,238.8,120.6,238.6,120.8z"/>
				</g>
			</g>
			<g>
				<g>
					<path class="st0" d="M125.8,127.2c1.2,1.2,2.5,2.4,3.7,3.7c1.2,1.3,2.5,2.6,3.7,3.9c1.2,1.3,2.5,2.6,3.7,3.9
						c1.3,1.2,2.5,2.4,3.8,3.4c1.3,1,2.6,2,3.9,2.7c1.3,0.7,2.6,1.3,3.9,1.6c1.3,0.3,2.5,0.5,3.6,0.5c1.1,0,2.1-0.2,2.9-0.4
						c0.2-0.1,0.4-0.1,0.6-0.1c0.2-0.1,0.3-0.1,0.5-0.2c0.2,0,0.3-0.1,0.4-0.1c0.1,0,0.3-0.1,0.4-0.1c0.5-0.3,0.7-0.3,0.7-0.3
						c0,0-0.2,0.1-0.6,0.3c-0.1,0.1-0.2,0.1-0.4,0.2c-0.1,0.1-0.3,0.1-0.4,0.2c-0.2,0.1-0.3,0.2-0.5,0.2c-0.2,0.1-0.4,0.1-0.6,0.2
						c-0.8,0.3-1.8,0.6-3,0.7c-1.2,0.1-2.5,0.1-3.8-0.1c-1.4-0.3-2.8-0.7-4.2-1.4c-1.4-0.7-2.8-1.5-4.1-2.6c-1.4-1-2.7-2.2-4-3.4
						c-1.3-1.2-2.6-2.5-3.8-3.9c-1.2-1.3-2.5-2.7-3.7-4c-1.2-1.3-2.4-2.6-3.6-3.8c-1.2-1.2-2.4-2.3-3.5-3.2
						c-0.6-0.5-1.2-0.9-1.8-1.3c-0.6-0.4-1.2-0.7-1.8-1c-1.2-0.5-2.3-0.8-3.4-0.8c-1.1,0-2.1,0.2-2.9,0.5c-0.2,0.1-0.4,0.2-0.6,0.2
						c-0.2,0.1-0.3,0.2-0.5,0.2c-0.3,0.2-0.6,0.3-0.8,0.4c-0.4,0.3-0.6,0.4-0.6,0.4s0.2-0.2,0.6-0.5c0.2-0.2,0.4-0.3,0.7-0.5
						c0.1-0.1,0.3-0.2,0.5-0.3c0.2-0.1,0.4-0.2,0.6-0.3c0.8-0.4,1.8-0.8,3-0.9c0.6-0.1,1.2,0,1.8,0c0.3,0.1,0.6,0.1,1,0.2
						c0.2,0,0.3,0.1,0.5,0.1c0.2,0.1,0.3,0.1,0.5,0.2c1.3,0.4,2.6,1.2,3.9,2C123.3,125,124.5,126.1,125.8,127.2z"/>
					<path class="st0" d="M121.1,125.9c1.1,1,2.2,2,3.3,3.2c0.5,0.6,1.1,1.2,1.6,1.8c0.5,0.6,1.1,1.2,1.6,1.8
						c1.1,1.2,2.2,2.4,3.4,3.6c1.1,1.2,2.3,2.3,3.5,3.4c1.2,1.1,2.4,2,3.6,2.9c2.4,1.7,4.9,3,7.2,3.6c1.1,0.3,2.2,0.6,3.2,0.7
						c0.2,0,0.5,0.1,0.7,0.1c0.2,0,0.5,0,0.7,0.1c0.4,0,0.8,0,1.2,0.1c0.7,0,1.3,0,1.7,0c0.4,0,0.6,0,0.6,0s-0.2,0.1-0.6,0.2
						c-0.4,0.1-1,0.3-1.8,0.5c-0.8,0.2-1.7,0.3-2.8,0.4c-1.1,0.1-2.3,0-3.5-0.1c-1.3-0.2-2.6-0.5-4-1c-1.4-0.5-2.8-1.1-4.1-2
						c-0.7-0.4-1.4-0.8-2-1.3c-0.3-0.2-0.7-0.5-1-0.7c-0.3-0.3-0.6-0.5-1-0.8c-1.3-1.1-2.5-2.2-3.7-3.5c-1.2-1.2-2.3-2.5-3.4-3.8
						c-0.5-0.6-1.1-1.3-1.6-1.9c-0.5-0.6-1-1.2-1.5-1.9c-1-1.2-2-2.4-2.9-3.4c-0.5-0.5-0.9-1-1.4-1.5c-0.5-0.5-0.9-0.9-1.4-1.3
						c-0.9-0.8-1.8-1.3-2.7-1.7c-0.9-0.3-1.7-0.4-2.4-0.4c-0.7,0.1-1.3,0.2-1.7,0.4c-0.4,0.2-0.6,0.3-0.6,0.3s0.2-0.1,0.6-0.4
						c0.4-0.2,1-0.6,1.8-0.8c0.8-0.2,1.8-0.4,2.8-0.2c1.1,0.2,2.2,0.6,3.3,1.2C118.9,124.1,120,125,121.1,125.9z"/>
				</g>
				<g>
					<path class="st0" d="M103.2,121.1c1.4,1,2.7,2.2,4,3.4c1.3,1.2,2.6,2.5,3.8,3.9c1.2,1.3,2.5,2.7,3.7,4c1.2,1.3,2.4,2.6,3.6,3.8
						c1.2,1.2,2.4,2.3,3.5,3.2c0.6,0.5,1.2,0.9,1.8,1.3c0.6,0.4,1.2,0.7,1.8,1c1.2,0.5,2.3,0.8,3.4,0.8c1.1,0,2.1-0.2,2.9-0.5
						c0.2-0.1,0.4-0.2,0.6-0.2c0.2-0.1,0.3-0.2,0.5-0.2c0.3-0.2,0.6-0.3,0.8-0.4c0.4-0.3,0.6-0.4,0.6-0.4s-0.2,0.2-0.6,0.5
						c-0.2,0.2-0.4,0.3-0.7,0.5c-0.1,0.1-0.3,0.2-0.5,0.3c-0.2,0.1-0.4,0.2-0.6,0.3c-0.8,0.4-1.8,0.8-3,0.9c-0.6,0.1-1.2,0-1.8,0
						c-0.3-0.1-0.6-0.1-1-0.2c-0.2,0-0.3-0.1-0.5-0.1c-0.2-0.1-0.3-0.1-0.5-0.2c-1.3-0.4-2.6-1.2-3.9-2c-1.3-0.9-2.5-1.9-3.8-3.1
						c-1.2-1.2-2.5-2.4-3.7-3.7c-1.2-1.3-2.5-2.6-3.7-3.9c-1.2-1.3-2.5-2.6-3.7-3.9c-1.3-1.2-2.5-2.4-3.8-3.4c-1.3-1-2.6-2-3.9-2.7
						c-1.3-0.7-2.6-1.3-3.9-1.6c-1.3-0.3-2.5-0.5-3.6-0.5c-1.1,0-2.1,0.2-2.9,0.4c-0.2,0.1-0.4,0.1-0.6,0.1
						c-0.2,0.1-0.3,0.1-0.5,0.2c-0.2,0-0.3,0.1-0.4,0.1c-0.1,0-0.3,0.1-0.4,0.1c-0.4,0.2-0.7,0.3-0.7,0.3s0.2-0.1,0.6-0.3
						c0.1-0.1,0.2-0.1,0.4-0.2c0.1-0.1,0.3-0.1,0.4-0.2c0.2-0.1,0.3-0.2,0.5-0.2c0.2-0.1,0.4-0.1,0.6-0.2c0.8-0.3,1.8-0.6,3-0.7
						c1.2-0.1,2.5-0.1,3.8,0.1c1.4,0.2,2.8,0.7,4.2,1.4C100.4,119.2,101.8,120.1,103.2,121.1z"/>
					<path class="st0" d="M108.4,120.8c0.3,0.2,0.7,0.5,1,0.7c0.3,0.3,0.6,0.5,1,0.8c1.3,1.1,2.5,2.2,3.7,3.5
						c1.2,1.2,2.3,2.5,3.4,3.8c0.5,0.6,1.1,1.3,1.6,1.9c0.5,0.6,1,1.2,1.5,1.9c1,1.2,2,2.4,2.9,3.4c0.5,0.5,0.9,1,1.4,1.5
						c0.5,0.5,0.9,0.9,1.4,1.3c0.9,0.8,1.8,1.3,2.7,1.7c0.9,0.3,1.7,0.4,2.4,0.4c0.7-0.1,1.3-0.2,1.7-0.4c0.4-0.2,0.6-0.3,0.6-0.3
						s-0.2,0.1-0.6,0.4c-0.4,0.2-1,0.6-1.8,0.8c-0.8,0.2-1.8,0.4-2.8,0.2c-1.1-0.2-2.2-0.6-3.3-1.2c-1.1-0.6-2.2-1.5-3.3-2.4
						c-1.1-1-2.2-2-3.3-3.2c-0.5-0.6-1.1-1.2-1.6-1.8c-0.5-0.6-1.1-1.2-1.6-1.8c-1.1-1.2-2.2-2.4-3.4-3.6c-1.1-1.2-2.3-2.3-3.5-3.4
						c-1.2-1.1-2.4-2-3.6-2.9c-2.4-1.7-4.9-3-7.2-3.6c-1.1-0.3-2.2-0.6-3.2-0.7c-0.2,0-0.5-0.1-0.7-0.1c-0.2,0-0.5,0-0.7-0.1
						c-0.4,0-0.8,0-1.2-0.1c-0.7,0-1.3,0-1.7,0c-0.4,0-0.6,0-0.6,0s0.2-0.1,0.6-0.2c0.4-0.1,1-0.3,1.8-0.5c0.8-0.2,1.7-0.3,2.8-0.4
						c1.1-0.1,2.3,0,3.5,0.1c1.3,0.2,2.6,0.5,4,1c1.4,0.5,2.8,1.1,4.1,2C107.1,119.9,107.7,120.3,108.4,120.8z"/>
					<path class="st0" d="M96.8,120.8c0.2,0.1,0.4,0.3,0.6,0.4c0.4,0.3,0.7,0.5,0.9,0.7c0.2,0.2,0.4,0.4,0.5,0.5
						c0.1,0.1,0.2,0.2,0.2,0.2s-0.1,0-0.2-0.1c-0.2-0.1-0.4-0.2-0.7-0.3c-0.3-0.1-0.6-0.2-1.1-0.4c-0.4-0.1-0.9-0.3-1.4-0.4
						c-0.3-0.1-0.5-0.1-0.8-0.2c-0.1,0-0.3-0.1-0.4-0.1c-0.1,0-0.3,0-0.4-0.1c-0.6-0.1-1.2-0.1-1.9-0.1c-0.7,0-1.3,0.1-2,0.2
						c-0.3,0.1-0.7,0.2-1,0.3c-0.3,0.1-0.7,0.2-1,0.4c-0.7,0.3-1.3,0.6-1.9,1.1c-0.6,0.4-1.1,0.9-1.6,1.5c-0.5,0.5-0.9,1.2-1.1,1.8
						c-0.3,0.6-0.5,1.2-0.6,1.8c-0.1,0.3-0.1,0.6-0.1,0.9c0,0.3,0,0.5,0,0.8c0,0.2,0,0.5,0,0.7c0,0.2,0,0.4,0.1,0.6
						c0,0.4,0.1,0.6,0.1,0.8c0,0.2,0.1,0.3,0.1,0.3s-0.1-0.1-0.1-0.2c0-0.1-0.1-0.2-0.2-0.3c0-0.1-0.1-0.1-0.1-0.2
						c0-0.1-0.1-0.1-0.1-0.2c-0.1-0.2-0.2-0.3-0.2-0.5c-0.1-0.2-0.1-0.4-0.2-0.7c0-0.3-0.1-0.5-0.1-0.8c0-0.3-0.1-0.6,0-1
						c0-0.7,0.1-1.5,0.4-2.3c0.3-0.8,0.7-1.7,1.3-2.4c0.6-0.8,1.2-1.4,2-2c0.7-0.6,1.5-1,2.3-1.4c0.4-0.2,0.8-0.3,1.2-0.4
						c0.2-0.1,0.4-0.1,0.6-0.1c0.2-0.1,0.4-0.1,0.6-0.1c0.8-0.1,1.6-0.1,2.3-0.1c0.7,0.1,1.4,0.2,2,0.4c0.3,0.1,0.6,0.2,0.9,0.3
						c0.3,0.1,0.5,0.2,0.8,0.4C96.4,120.5,96.6,120.6,96.8,120.8z"/>
				</g>
			</g>
		</g>
		<path class="st0" d="M217.6,57.5c-10.2,0-18.2-1-24.7-2.4c-0.4-2.2-0.5-8.7-0.5-10c-1.1,0.2-2.2,0.2-3.1,0.2
			c0.8-5.4,4.6-10.5,11.8-15.3l-7.6-4.8c-0.6,1.3-1.3,2.6-1.9,3.9c-6-3.2-11.8-5.1-17.6-5.9c1-1.6,2.3-2.9,3.8-4.1h-7.6
			c1.7-0.9,2.8-2.7,2.8-4.7c0-2.3-1.4-4.2-3.4-5c-0.3-0.7-0.5-1.4-0.6-2.1c1.3,0.2,2.6,0.8,4,1.6V2.4c-1.3,1.1-2.7,1.7-4,2
			c0.2-1.4,0.7-2.9,1.6-4.4h-3h-3c0.9,1.5,1.4,3,1.6,4.4c-1.4-0.3-2.7-0.9-4-2v6.3c1.4-0.8,2.7-1.3,4-1.6c-0.1,0.7-0.3,1.4-0.6,2.1
			c-2,0.8-3.4,2.7-3.4,5c0,2,1.1,3.8,2.8,4.7h-7.6c1.5,1.2,2.8,2.5,3.8,4.1c-5.8,0.8-11.6,2.7-17.6,5.9c-0.6-1.3-1.3-2.6-1.9-3.9
			l-7.6,4.8c7.2,4.8,11,9.9,11.8,15.3c-1,0-2-0.1-3.1-0.2c0,1.3-0.9,8.1-1.4,10.1c-6.3,1.3-14.1,2.2-23.9,2.3l-2.1,0l-0.2,41.3
			c0,14.3,12.8,26.9,23.5,35c12.4,9.4,25.5,15.4,28,16.5l0.9,0.4l0.9-0.4c2.5-1.1,15.6-7.2,28-16.6c10.7-8.1,23.5-20.8,23.5-35
			l0.2-41.2L217.6,57.5z M190.6,31c-2.1,4.5-4.1,8.9-5.7,13.5c-1-0.4-1.9-1-2.6-1.7c1.2-6.6,3.1-10.6,4.8-13.8
			C188.3,29.6,189.5,30.3,190.6,31z M185.7,28.3c-2,3.7-4,8-5,12.8c-0.9-1.4-1.6-3.2-2-5.3c-1.3,2.7-3,4.7-4.8,6
			c0.6-6.6,3-12.6,5.1-15.8C181.3,26.6,183.6,27.4,185.7,28.3z M172.9,24.9c1.6,0.2,3.1,0.4,4.6,0.8c-2.6,4.4-5.1,11.7-5.3,17.2
			c-0.6,0.3-1.2,0.5-1.7,0.7c-0.1-0.1-0.2-0.3-0.3-0.4C169.9,35.1,170.7,29.2,172.9,24.9z M163.8,14.3c0-2,1.6-3.7,3.7-3.7
			c2,0,3.7,1.6,3.7,3.7c0,2-1.6,3.7-3.7,3.7C165.5,18,163.8,16.4,163.8,14.3z M162.1,24.9c2.1,4.3,2.9,10.1,2.8,18
			c-0.1,0.2-0.3,0.4-0.5,0.6c-0.5-0.2-1.1-0.4-1.6-0.6c-0.3-5.5-2.8-12.8-5.3-17.2C159,25.3,160.6,25.1,162.1,24.9z M156.1,26
			c2,3.2,4.4,9.3,5.1,15.8c-1.9-1.4-3.5-3.4-4.8-6c-0.4,2.1-1.1,3.9-2,5.3c-0.9-4.8-2.9-9-5-12.8C151.4,27.4,153.7,26.6,156.1,26z
			 M144.4,31c1.1-0.7,2.3-1.4,3.6-2c1.7,3.2,3.6,7.3,4.8,13.8c-0.8,0.7-1.7,1.3-2.6,1.7C148.6,39.9,146.6,35.4,144.4,31z
			 M215.3,98.7c0,8.9-5.9,18.3-17.4,28.1c-11.5,9.8-24.7,16.4-29.8,18.8l-0.9,0.4l-0.9-0.4c-4-1.9-14.5-7.2-24.4-14.5
			c-10.4-7.6-22.8-19.5-22.8-32.4l0.3-37l2-0.1c26.3-0.8,38.7-7.8,44.5-13.5l1.4-1.4l0.1,0l1.5,1.4c2.4,2.4,5.6,4.5,9.3,6.3
			c8.9,4.4,20.7,6.8,35.3,7.2l2.1,0.1L215.3,98.7z"/>
		<rect x="0.5" y="189.1" class="st0" width="325" height="2.1"/>
	</g>
	<path class="st0" d="M332,141.6c0.7,6.6-2.6,12-11.2,13.1c0.9-0.7,1.6-1.5,2-2.7c-5.7,4.1-12.8,2.9-24.2-1c2.9-1.7,6.4-2.5,9.6-2.1
		c-1.4-1.8-3.7-2.8-6.1-2.3c6.7-10,3.4-23.8-9.4-24.1c-8.8-0.3-14.8,8.3-9.6,15c-1.1-5.6,9.2-12.1,15.9-5.9c4.6,4.3,3.6,13-2.3,18.8
		c-16.6-6.1-31.1-16.1-50.3-17.9c-15.7-1.5-35.7,5.8-44,22.7h-131c16.1-5.5,28.9-19.3,44.6-16.6c-1.6,0.4-3,1.2-3.9,2.7
		c8.3-3.6,18.6,6.1,24.2,13.8c-6.2-14.2-28.5-24.1-44.3-22.6c-19.2,1.9-33.7,11.9-50.3,17.9c-5.9-5.7-6.9-14.5-2.3-18.8
		c6.7-6.2,17,0.3,15.9,5.9c5.2-6.7-0.8-15.3-9.6-15c-12.7,0.4-16,14.1-9.4,24.1c-2.3-0.5-4.7,0.5-6.1,2.3c3.2-0.4,6.7,0.5,9.6,2.1
		c-11.4,3.9-18.4,5-24.2,1c0.4,1.1,1.1,2,2,2.7c-8.6-1.1-11.9-6.5-11.2-13.1c-5.1,14.1,11.6,22.3,39.6,13.1c1.1,0.5,2.4,1,3.7,1.3
		c-9.5,3.4-19.9,5.7-30.8,5.4c10.9,2.1,21.8,0.2,31.9-3.2h236.9c10.1,3.4,21,5.2,31.9,3.2c-10.9,0.3-21.2-2.1-30.8-5.4
		c1.3-0.4,2.5-0.8,3.7-1.3C320.3,163.9,337.1,155.7,332,141.6z M226.3,141.3c-0.9-1.5-2.3-2.3-3.9-2.7c15.7-2.7,28.5,11,44.6,16.6
		h-64.6C210,144.5,218.1,137.7,226.3,141.3z M47.4,154.3c21.7-7.4,41.5-21,63-17.2c-23.8-0.9-36.1,19.3-53.6,19
		c15.9-6.4,29.4-15.6,37.8-17.7c-10.6,1-25.5,10.5-43.3,17.1C50.1,155.2,49,154.9,47.4,154.3z M286.9,155.4
		c-17.7-6.5-32.6-16.1-43.3-17.1c8.4,2.1,22,11.3,37.8,17.7c-17.5,0.2-29.8-19.9-53.6-19c21.4-3.7,41.3,9.8,63,17.2
		C289.3,154.9,288.2,155.2,286.9,155.4z"/>
	<g>
		<path class="st0" d="M118.2,195.4l0.9,2.6c-2.4-1-4.5-1.6-6.3-1.6c-0.3,0-0.6,0-0.9,0c-1.2,0.2-2.1,0.4-2.7,0.8
			c-0.7,0.5-1.1,1.4-1.2,2.5c-0.1,1.6,0.4,2.8,1.4,3.6c0.8,0.6,1.9,0.9,3.2,0.9c0.3,0,0.6,0,0.8-0.1c2.6-0.3,4.7-1.1,6.4-2.3
			l-0.9,3.1c-0.5,0.3-1,0.5-1.6,0.7c-1.4,0.5-2.8,0.7-4.4,0.7c-5,0.1-8.3-1-9.8-3.2c-0.5-0.8-0.8-1.7-0.8-2.6c0-1.2,0.4-2.2,1.3-3.1
			c1-1.1,2.6-1.8,4.7-2.3c1.4-0.3,2.8-0.5,4.5-0.5c1.2,0,2.4,0.1,3.5,0.3C117.3,195.1,117.9,195.2,118.2,195.4z"/>
		<path class="st0" d="M133.9,204c-1-0.8-2.1-1.2-3.2-1.2c-1,0-1.9,0.3-2.7,1l-0.3-1.8c-1.1,2.1-1.9,3.4-2.1,4h-3.2
			c0.7-1.1,2-2.9,3.7-5.6c0.9-1.6,1.9-3.4,3-5.4h6c0.5,1.1,1.4,2.9,2.7,5.3c1.9,3.2,3.3,5.1,4,5.7h-7
			C134.7,205.7,134.4,205.1,133.9,204z M127.9,201.6c0.8-0.5,1.6-0.7,2.6-0.7c0.9,0,1.6,0.2,2.3,0.6c-1.2-2.4-2-3.9-2.3-4.4
			C130.1,197.8,129.2,199.3,127.9,201.6z"/>
		<path class="st0" d="M150.2,205.9h-5.8c0.2-2.4,0.4-4.2,0.4-5.6c0-1.3-0.1-3.2-0.4-5.4h11c1.2,0,2.3,0.3,3.3,0.9
			c0.9,0.6,1.4,1.3,1.3,2.2c-0.1,1.7-1.3,3-3.6,3.7c-1.1,0.4-3,0.7-5.7,0.9l-0.3-0.7c1.6-0.2,2.8-0.7,3.6-1.4
			c0.6-0.5,0.8-1.2,0.8-1.9c0-0.3,0-0.5-0.1-0.8c-0.4-1.1-1.6-1.6-3.6-1.6c-0.3,0-0.7,0-1.1,0c-0.1,1.1-0.2,2.3-0.2,3.7
			C149.8,202.1,150,204,150.2,205.9z"/>
		<path class="st0" d="M164,194.9h5.6c-0.3,1.3-0.4,3.2-0.4,5.6c0,2.9,0.1,4.7,0.4,5.5H164c0.2-1.2,0.3-3.1,0.3-5.5
			C164.3,197.4,164.2,195.6,164,194.9z"/>
		<path class="st0" d="M180,196.5c-1.3,0-2.1,0.1-2.4,0.1c-1,0.1-2.4,0.5-4.2,1.1l0.6-2.8h17.6l0.6,2.8c-1.5-0.6-2.8-1-4-1.1
			c-0.7-0.1-1.6-0.1-2.7-0.1c-0.1,1.6-0.2,2.9-0.2,3.9c0,1.3,0.2,3.2,0.4,5.5h-5.9c0.2-1.2,0.3-3,0.3-5.4
			C180.1,199.3,180.1,197.9,180,196.5z"/>
		<path class="st0" d="M203.6,204c-1-0.8-2.1-1.2-3.2-1.2c-1,0-1.9,0.3-2.7,1l-0.3-1.8c-1.1,2.1-1.9,3.4-2.1,4H192
			c0.7-1.1,2-2.9,3.7-5.6c0.9-1.6,1.9-3.4,3-5.4h6c0.5,1.1,1.4,2.9,2.7,5.3c1.9,3.2,3.3,5.1,4,5.7h-7
			C204.4,205.7,204.1,205.1,203.6,204z M197.6,201.6c0.8-0.5,1.6-0.7,2.6-0.7c0.9,0,1.6,0.2,2.3,0.6c-1.2-2.4-2-3.9-2.3-4.4
			C199.7,197.8,198.9,199.3,197.6,201.6z"/>
		<path class="st0" d="M219.6,204.1c0.9,0.1,1.7,0.1,2.4,0.1c2.7,0,5.1-0.4,7.3-1.2l-0.9,2.9h-13.9c0.2-0.7,0.4-2.6,0.4-5.6
			c0-3-0.1-4.9-0.4-5.4h5.3c-0.2,0.4-0.3,1.3-0.3,2.6c0,0.9,0,1.8,0.1,2.7C219.5,201.4,219.5,202.7,219.6,204.1z"/>
	</g>
</g>
</svg>
